<mxfile host="65bd71144e">
    <diagram id="r9xyRmY8hzCquKlJQQaJ" name="Page-1">
        <mxGraphModel dx="820" dy="478" grid="1" gridSize="10" guides="1" tooltips="1" connect="1" arrows="1" fold="1" page="1" pageScale="1" pageWidth="827" pageHeight="1169" math="0" shadow="0">
            <root>
                <mxCell id="0"/>
                <mxCell id="1" parent="0"/>
                <mxCell id="21" style="edgeStyle=none;html=1;exitX=0.5;exitY=0;exitDx=0;exitDy=0;entryX=0.5;entryY=1;entryDx=0;entryDy=0;fontColor=#9999FF;" edge="1" parent="1" source="2" target="3">
                    <mxGeometry relative="1" as="geometry"/>
                </mxCell>
                <mxCell id="2" value="&lt;b&gt;&lt;u&gt;Main&lt;br&gt;&lt;/u&gt;&lt;/b&gt;import User_Interface" style="rounded=1;whiteSpace=wrap;html=1;" parent="1" vertex="1">
                    <mxGeometry x="260" y="730" width="120" height="60" as="geometry"/>
                </mxCell>
                <mxCell id="3" value="&lt;b&gt;&lt;u&gt;User_Interface&lt;/u&gt;&lt;/b&gt;&lt;br&gt;import:&lt;br&gt;&lt;div style=&quot;text-align: left&quot;&gt;&lt;span&gt;Controller&lt;/span&gt;&lt;/div&gt;&lt;div style=&quot;text-align: left&quot;&gt;&lt;span&gt;Processing_file&lt;/span&gt;&lt;/div&gt;&lt;div style=&quot;text-align: left&quot;&gt;&lt;span&gt;User_action&lt;/span&gt;&lt;/div&gt;" style="rounded=1;whiteSpace=wrap;html=1;" parent="1" vertex="1">
                    <mxGeometry x="260" y="600" width="120" height="90" as="geometry"/>
                </mxCell>
                <mxCell id="4" value="&lt;b&gt;def init_programm&lt;/b&gt;&lt;br&gt;&lt;div style=&quot;text-align: left&quot;&gt;&lt;i&gt;функция&amp;nbsp;запрашивает у пользователя имя файла или инициализировать создание тестовой БД&lt;/i&gt;&lt;/div&gt;&lt;div style=&quot;text-align: left&quot;&gt;&lt;br&gt;&lt;/div&gt;" style="text;html=1;strokeColor=none;fillColor=none;align=center;verticalAlign=middle;whiteSpace=wrap;rounded=0;fontColor=#9999FF;" vertex="1" parent="1">
                    <mxGeometry x="400" y="590" width="160" height="120" as="geometry"/>
                </mxCell>
                <mxCell id="5" value="&lt;b&gt;def user_choice&lt;/b&gt;&lt;br&gt;&lt;div style=&quot;text-align: left&quot;&gt;&lt;i&gt;функция&amp;nbsp;запрашивает у пользователя ввести цифру, соотв тому, что он хочет увидеть&lt;/i&gt;&lt;/div&gt;&lt;div style=&quot;text-align: left&quot;&gt;&lt;i&gt;пример:&amp;nbsp;&lt;/i&gt;&lt;/div&gt;&lt;div style=&quot;text-align: left&quot;&gt;&lt;i&gt;1-показать все данные&lt;/i&gt;&lt;/div&gt;&lt;div style=&quot;text-align: left&quot;&gt;&lt;i&gt;2 - показать выборку по классу... и т.д.&lt;/i&gt;&lt;/div&gt;&lt;div style=&quot;text-align: left&quot;&gt;&lt;i&gt;&lt;br&gt;&lt;/i&gt;&lt;/div&gt;&lt;div style=&quot;text-align: left&quot;&gt;&lt;i&gt;ВОЗВРАЩАЕТ цифру-выбор&lt;/i&gt;&lt;/div&gt;&lt;div style=&quot;text-align: left&quot;&gt;&lt;br&gt;&lt;/div&gt;" style="text;html=1;strokeColor=none;fillColor=none;align=center;verticalAlign=middle;whiteSpace=wrap;rounded=0;fontColor=#9999FF;" vertex="1" parent="1">
                    <mxGeometry x="650" y="457.5" width="170" height="175" as="geometry"/>
                </mxCell>
                <mxCell id="6" value="&lt;b&gt;&lt;u&gt;User_Action&lt;/u&gt;&lt;/b&gt;&lt;br&gt;" style="rounded=1;whiteSpace=wrap;html=1;" vertex="1" parent="1">
                    <mxGeometry x="520" y="500" width="120" height="90" as="geometry"/>
                </mxCell>
                <mxCell id="8" value="&lt;b&gt;&lt;u&gt;Controller&lt;/u&gt;&lt;/b&gt;&lt;br&gt;import:&lt;br&gt;&lt;div style=&quot;text-align: left&quot;&gt;Processing_data&lt;/div&gt;&lt;div style=&quot;text-align: left&quot;&gt;Processing_file&lt;/div&gt;" style="rounded=1;whiteSpace=wrap;html=1;" vertex="1" parent="1">
                    <mxGeometry x="260" y="390" width="120" height="90" as="geometry"/>
                </mxCell>
                <mxCell id="9" value="&lt;b&gt;def assign&lt;br&gt;&lt;/b&gt;ПРИНИМАЕТ цифру-выбор&lt;br&gt;&lt;div style=&quot;text-align: left&quot;&gt;&lt;i&gt;функция в соответствии с выбором пользователя активирует необх. функционал&lt;/i&gt;&lt;/div&gt;&lt;div style=&quot;text-align: left&quot;&gt;&lt;i&gt;&amp;nbsp; &amp;nbsp; &amp;nbsp; &amp;nbsp; &amp;nbsp; &amp;nbsp; &lt;/i&gt;&lt;b&gt;def file_path&lt;/b&gt;&lt;/div&gt;&lt;div style=&quot;text-align: left&quot;&gt;&lt;i&gt;принимает введенное пользователем имя файла (путь) и записывает в глоб перем, чтоб далее ее отправлять в функции обработки&lt;/i&gt;&lt;/div&gt;" style="text;html=1;strokeColor=none;fillColor=none;align=center;verticalAlign=middle;whiteSpace=wrap;rounded=0;fontColor=#9999FF;" vertex="1" parent="1">
                    <mxGeometry x="390" y="310" width="140" height="160" as="geometry"/>
                </mxCell>
                <mxCell id="10" value="&lt;b&gt;&lt;u&gt;Processing_file&lt;/u&gt;&lt;/b&gt;" style="rounded=1;whiteSpace=wrap;html=1;" vertex="1" parent="1">
                    <mxGeometry x="40" y="500" width="120" height="90" as="geometry"/>
                </mxCell>
                <mxCell id="11" value="&lt;b&gt;def read_file&lt;br&gt;def write_file&lt;br&gt;def create_test_file&lt;br&gt;def append_info&lt;br&gt;def delete_info&lt;br&gt;&lt;/b&gt;&lt;div style=&quot;text-align: left&quot;&gt;&lt;br&gt;&lt;/div&gt;" style="text;html=1;strokeColor=none;fillColor=none;align=center;verticalAlign=middle;whiteSpace=wrap;rounded=0;fontColor=#9999FF;" vertex="1" parent="1">
                    <mxGeometry x="20" y="570" width="160" height="140" as="geometry"/>
                </mxCell>
                <mxCell id="12" value="&lt;b&gt;&lt;u&gt;Processing_Data&lt;/u&gt;&lt;/b&gt;" style="rounded=1;whiteSpace=wrap;html=1;" vertex="1" parent="1">
                    <mxGeometry x="40" y="320" width="120" height="90" as="geometry"/>
                </mxCell>
                <mxCell id="13" value="&lt;b&gt;def sort1&lt;br&gt;def sort2&lt;br&gt;....&lt;br&gt;def output&lt;br&gt;&lt;/b&gt;&lt;div style=&quot;text-align: left&quot;&gt;&lt;br&gt;&lt;/div&gt;" style="text;html=1;strokeColor=none;fillColor=none;align=center;verticalAlign=middle;whiteSpace=wrap;rounded=0;fontColor=#9999FF;" vertex="1" parent="1">
                    <mxGeometry x="20" y="250" width="160" height="80" as="geometry"/>
                </mxCell>
                <mxCell id="14" value="" style="endArrow=classic;html=1;fontColor=#9999FF;exitX=1;exitY=0.5;exitDx=0;exitDy=0;entryX=-0.017;entryY=0.672;entryDx=0;entryDy=0;entryPerimeter=0;" edge="1" parent="1" source="10" target="8">
                    <mxGeometry width="50" height="50" relative="1" as="geometry">
                        <mxPoint x="360" y="550" as="sourcePoint"/>
                        <mxPoint x="410" y="500" as="targetPoint"/>
                        <Array as="points"/>
                    </mxGeometry>
                </mxCell>
                <mxCell id="15" value="" style="endArrow=classic;html=1;fontColor=#9999FF;entryX=-0.025;entryY=0.417;entryDx=0;entryDy=0;entryPerimeter=0;" edge="1" parent="1" target="8">
                    <mxGeometry width="50" height="50" relative="1" as="geometry">
                        <mxPoint x="160" y="360" as="sourcePoint"/>
                        <mxPoint x="210" y="310" as="targetPoint"/>
                    </mxGeometry>
                </mxCell>
                <mxCell id="17" value="&lt;b&gt;Файл&amp;nbsp;&lt;br&gt;формат txt&lt;/b&gt;" style="shape=process;whiteSpace=wrap;html=1;backgroundOutline=1;fontColor=#9999FF;" vertex="1" parent="1">
                    <mxGeometry x="10" y="730" width="180" height="60" as="geometry"/>
                </mxCell>
                <mxCell id="18" value="данные туда записываются как&lt;b&gt; словарь:&lt;br&gt;&lt;/b&gt;ключ - ID&amp;nbsp;&lt;br&gt;данные - набор строк (ФИО, класс, др, тел...)" style="text;html=1;strokeColor=none;fillColor=none;align=center;verticalAlign=middle;whiteSpace=wrap;rounded=0;fontColor=#9999FF;" vertex="1" parent="1">
                    <mxGeometry x="20" y="790" width="160" height="80" as="geometry"/>
                </mxCell>
                <mxCell id="19" value="" style="endArrow=classic;html=1;fontColor=#9999FF;exitX=0;exitY=0.5;exitDx=0;exitDy=0;entryX=1.008;entryY=0.167;entryDx=0;entryDy=0;entryPerimeter=0;" edge="1" parent="1" source="6" target="3">
                    <mxGeometry width="50" height="50" relative="1" as="geometry">
                        <mxPoint x="360" y="490" as="sourcePoint"/>
                        <mxPoint x="410" y="440" as="targetPoint"/>
                    </mxGeometry>
                </mxCell>
                <mxCell id="20" value="" style="endArrow=classic;html=1;fontColor=#9999FF;entryX=0.5;entryY=1;entryDx=0;entryDy=0;" edge="1" parent="1" target="8">
                    <mxGeometry width="50" height="50" relative="1" as="geometry">
                        <mxPoint x="320" y="600" as="sourcePoint"/>
                        <mxPoint x="370" y="550" as="targetPoint"/>
                    </mxGeometry>
                </mxCell>
            </root>
        </mxGraphModel>
    </diagram>
</mxfile>
